<svg width="24" height="24" viewBox="0 0 24 24" fill="none" xmlns="http://www.w3.org/2000/svg">
<path d="M21.0858 10.9119C21.7286 10.3325 21.3819 9.26547 20.5213 9.17458L15.6965 8.66506C15.3416 8.62757 15.0336 8.40376 14.8882 8.07779L12.9133 3.64819C12.5609 2.8578 11.4391 2.8578 11.0867 3.64819L9.11178 8.07779C8.96644 8.40376 8.65839 8.62757 8.30346 8.66506L3.47871 9.17458C2.61809 9.26547 2.2714 10.3325 2.91424 10.9119L6.51791 14.1598C6.78303 14.3988 6.9007 14.7609 6.82667 15.11L5.82072 19.8545C5.64122 20.7011 6.54889 21.3606 7.29856 20.9282L11.5004 18.5049C11.8096 18.3266 12.1904 18.3266 12.4996 18.5049L16.7014 20.9282C17.4511 21.3606 18.3588 20.7011 18.1793 19.8545L17.1733 15.11C17.0993 14.7609 17.217 14.3988 17.4821 14.1598L21.0858 10.9119Z" fill="#FFAE00"/>
</svg>
