<svg width="23" height="23" viewBox="0 0 23 23" fill="none" xmlns="http://www.w3.org/2000/svg">
<path d="M6.46875 2.875V3.59375H3.59375V19.4063H19.4063V3.59375H16.5313V2.875H15.0938V3.59375H7.90625V2.875H6.46875ZM5.03125 5.03125H6.46875V5.75H7.90625V5.03125H15.0938V5.75H16.5313V5.03125H17.9688V6.46875H5.03125V5.03125ZM5.03125 7.90625H17.9688V17.9688H5.03125V7.90625ZM9.34375 9.34375V10.7813H10.7813V9.34375H9.34375ZM12.2188 9.34375V10.7813H13.6563V9.34375H12.2188ZM15.0938 9.34375V10.7813H16.5313V9.34375H15.0938ZM6.46875 12.2188V13.6563H7.90625V12.2188H6.46875ZM9.34375 12.2188V13.6563H10.7813V12.2188H9.34375ZM12.2188 12.2188V13.6563H13.6563V12.2188H12.2188ZM15.0938 12.2188V13.6563H16.5313V12.2188H15.0938ZM6.46875 15.0938V16.5313H7.90625V15.0938H6.46875ZM9.34375 15.0938V16.5313H10.7813V15.0938H9.34375ZM12.2188 15.0938V16.5313H13.6563V15.0938H12.2188Z" fill="#00234D"/>
</svg>
