<svg width="23" height="23" viewBox="0 0 23 23" fill="none" xmlns="http://www.w3.org/2000/svg">
<path d="M11.5 3.59375C8.72888 3.59375 6.46875 5.85388 6.46875 8.625C6.46875 10.3573 7.35315 11.8959 8.69238 12.8027C6.12903 13.9033 4.3125 16.447 4.3125 19.4063H5.75C5.75 16.2224 8.31616 13.6563 11.5 13.6563C14.6838 13.6563 17.25 16.2224 17.25 19.4063H18.6875C18.6875 16.447 16.871 13.9033 14.3076 12.8027C15.6469 11.8959 16.5313 10.3573 16.5313 8.625C16.5313 5.85388 14.2711 3.59375 11.5 3.59375ZM11.5 5.03125C13.4934 5.03125 15.0938 6.63159 15.0938 8.625C15.0938 10.6184 13.4934 12.2188 11.5 12.2188C9.50659 12.2188 7.90625 10.6184 7.90625 8.625C7.90625 6.63159 9.50659 5.03125 11.5 5.03125Z" fill="#00234D"/>
</svg>
