<svg width="334" height="140" viewBox="0 0 334 140" fill="none" xmlns="http://www.w3.org/2000/svg">
<path d="M115.031 49.4922V39.375C115.031 33.8635 112.842 28.5777 108.944 24.6804C105.047 20.7832 99.7613 18.5938 94.2498 18.5938H41.7498C36.2383 18.5938 30.9525 20.7832 27.0552 24.6804C23.158 28.5777 20.9686 33.8635 20.9686 39.375V49.4922C16.1043 50.2892 11.6818 52.7891 8.49058 56.5457C5.29939 60.3023 3.54736 65.0709 3.54736 70C3.54736 74.9291 5.29939 79.6977 8.49058 83.4543C11.6818 87.2109 16.1043 89.7108 20.9686 90.5078V109.375C20.9686 111.406 21.7752 113.353 23.211 114.789C24.6468 116.225 26.5942 117.031 28.6248 117.031H107.375C109.405 117.031 111.353 116.225 112.789 114.789C114.224 113.353 115.031 111.406 115.031 109.375V90.5078C119.895 89.7108 124.318 87.2109 127.509 83.4543C130.7 79.6977 132.452 74.9291 132.452 70C132.452 65.0709 130.7 60.3023 127.509 56.5457C124.318 52.7891 119.895 50.2892 115.031 49.4922V49.4922ZM41.7498 25.1562H94.2498C98.0164 25.1707 101.625 26.6733 104.288 29.3367C106.951 32.0002 108.454 35.6084 108.469 39.375V49.4922C103.595 50.2827 99.1599 52.7784 95.9548 56.5343C92.7497 60.2903 90.9826 65.0624 90.9685 70V71.0938H45.0311V70C45.017 65.0624 43.2499 60.2903 40.0448 56.5343C36.8397 52.7784 32.405 50.2827 27.5311 49.4922V39.375C27.5455 35.6084 29.0481 32.0002 31.7115 29.3367C34.375 26.6733 37.9832 25.1707 41.7498 25.1562V25.1562ZM111.914 84.2188H111.75C110.88 84.2188 110.045 84.5644 109.43 85.1798C108.814 85.7952 108.469 86.6298 108.469 87.5V109.375C108.469 109.665 108.353 109.943 108.148 110.148C107.943 110.354 107.665 110.469 107.375 110.469H28.6248C28.3347 110.469 28.0565 110.354 27.8514 110.148C27.6463 109.943 27.5311 109.665 27.5311 109.375V87.5C27.5311 86.6298 27.1854 85.7952 26.57 85.1798C25.9546 84.5644 25.12 84.2188 24.2498 84.2188H24.0857C21.2808 84.1864 18.548 83.325 16.2314 81.7431C13.9149 80.1612 12.118 77.9294 11.0669 75.3286C10.0158 72.7277 9.75754 69.8741 10.3246 67.1269C10.8916 64.3796 12.2586 61.8614 14.2535 59.8893C16.2484 57.9171 18.7821 56.5791 21.5357 56.0436C24.2892 55.5082 27.1397 55.7992 29.7283 56.88C32.3169 57.9608 34.5279 59.7832 36.0832 62.1178C37.6384 64.4524 38.4684 67.1948 38.4686 70V91.875C38.4686 92.7452 38.8143 93.5798 39.4296 94.1952C40.045 94.8106 40.8796 95.1562 41.7498 95.1562C42.62 95.1562 43.4546 94.8106 44.07 94.1952C44.6853 93.5798 45.0311 92.7452 45.0311 91.875V77.6562H90.9685V91.875C90.9685 92.7452 91.3142 93.5798 91.9296 94.1952C92.545 94.8106 93.3796 95.1562 94.2498 95.1562C95.12 95.1562 95.9546 94.8106 96.57 94.1952C97.1853 93.5798 97.531 92.7452 97.531 91.875V70C97.5312 67.1948 98.3612 64.4524 99.9164 62.1178C101.472 59.7832 103.683 57.9608 106.271 56.88C108.86 55.7992 111.71 55.5082 114.464 56.0436C117.218 56.5791 119.751 57.9171 121.746 59.8893C123.741 61.8614 125.108 64.3796 125.675 67.1269C126.242 69.8741 125.984 72.7277 124.933 75.3286C123.882 77.9294 122.085 80.1612 119.768 81.7431C117.452 83.325 114.719 84.1864 111.914 84.2188V84.2188Z" fill="#00234D"/>
<path d="M149.84 26.576V38.288H166.688V42.416H149.84V56H145.04V22.4H168.752V26.576H149.84ZM194.229 56.384C189.749 56.384 186.261 55.104 183.765 52.544C181.269 49.984 180.021 46.304 180.021 41.504V22.4H184.821V41.312C184.821 48.512 187.973 52.112 194.277 52.112C197.349 52.112 199.701 51.232 201.333 49.472C202.965 47.68 203.781 44.96 203.781 41.312V22.4H208.437V41.504C208.437 46.336 207.189 50.032 204.693 52.592C202.197 55.12 198.709 56.384 194.229 56.384ZM245.541 56L238.293 45.68C237.397 45.744 236.693 45.776 236.181 45.776H227.877V56H223.077V22.4H236.181C240.533 22.4 243.957 23.44 246.453 25.52C248.949 27.6 250.197 30.464 250.197 34.112C250.197 36.704 249.557 38.912 248.278 40.736C246.998 42.56 245.174 43.888 242.806 44.72L250.774 56H245.541ZM236.037 41.696C239.077 41.696 241.398 41.04 242.998 39.728C244.598 38.416 245.398 36.544 245.398 34.112C245.398 31.68 244.598 29.824 242.998 28.544C241.398 27.232 239.077 26.576 236.037 26.576H227.877V41.696H236.037ZM291.649 22.4V56H287.713L267.553 30.944V56H262.753V22.4H266.689L286.849 47.456V22.4H291.649ZM306.506 22.4H311.306V56H306.506V22.4ZM154.688 115.24C152.224 115.24 149.872 114.824 147.632 113.992C145.424 113.128 143.696 112.024 142.448 110.68L143.552 108.856C144.736 110.104 146.32 111.128 148.304 111.928C150.32 112.696 152.432 113.08 154.64 113.08C157.84 113.08 160.256 112.472 161.888 111.256C163.52 110.04 164.336 108.456 164.336 106.504C164.336 105 163.904 103.8 163.04 102.904C162.176 102.008 161.104 101.32 159.824 100.84C158.544 100.36 156.816 99.864 154.64 99.352C152.176 98.744 150.192 98.152 148.688 97.576C147.216 97 145.952 96.12 144.896 94.936C143.872 93.72 143.36 92.104 143.36 90.088C143.36 88.456 143.792 86.968 144.656 85.624C145.52 84.248 146.832 83.16 148.592 82.36C150.384 81.56 152.608 81.16 155.264 81.16C157.12 81.16 158.944 81.432 160.736 81.976C162.528 82.52 164.08 83.256 165.392 84.184L164.48 86.152C163.136 85.224 161.648 84.52 160.016 84.04C158.416 83.56 156.832 83.32 155.264 83.32C152.16 83.32 149.808 83.944 148.208 85.192C146.608 86.44 145.808 88.056 145.808 90.04C145.808 91.544 146.24 92.744 147.104 93.64C147.968 94.536 149.04 95.224 150.32 95.704C151.6 96.184 153.344 96.696 155.552 97.24C158.016 97.848 159.984 98.44 161.456 99.016C162.928 99.592 164.176 100.472 165.2 101.656C166.256 102.808 166.784 104.376 166.784 106.36C166.784 107.992 166.336 109.48 165.44 110.824C164.576 112.168 163.232 113.24 161.408 114.04C159.584 114.84 157.344 115.24 154.688 115.24ZM185.869 83.608H173.773V81.4H200.413V83.608H188.317V115H185.869V83.608ZM225.071 115.24C221.775 115.24 218.799 114.504 216.143 113.032C213.487 111.528 211.391 109.48 209.855 106.888C208.351 104.296 207.599 101.4 207.599 98.2C207.599 95 208.351 92.104 209.855 89.512C211.391 86.92 213.487 84.888 216.143 83.416C218.799 81.912 221.775 81.16 225.071 81.16C228.367 81.16 231.343 81.896 233.999 83.368C236.655 84.84 238.735 86.872 240.239 89.464C241.775 92.056 242.543 94.968 242.543 98.2C242.543 101.432 241.775 104.344 240.239 106.936C238.735 109.528 236.655 111.56 233.999 113.032C231.343 114.504 228.367 115.24 225.071 115.24ZM225.071 112.984C227.887 112.984 230.431 112.344 232.703 111.064C234.975 109.784 236.767 108.024 238.079 105.784C239.391 103.512 240.047 100.984 240.047 98.2C240.047 95.416 239.391 92.904 238.079 90.664C236.767 88.392 234.975 86.616 232.703 85.336C230.431 84.056 227.887 83.416 225.071 83.416C222.255 83.416 219.695 84.056 217.391 85.336C215.119 86.616 213.327 88.392 212.015 90.664C210.703 92.904 210.047 95.416 210.047 98.2C210.047 100.984 210.703 103.512 212.015 105.784C213.327 108.024 215.119 109.784 217.391 111.064C219.695 112.344 222.255 112.984 225.071 112.984ZM279.162 115L271.146 103.768C269.962 103.928 268.874 104.008 267.882 104.008H258.282V115H255.834V81.4H267.882C272.106 81.4 275.418 82.408 277.818 84.424C280.218 86.408 281.418 89.176 281.418 92.728C281.418 95.384 280.73 97.624 279.354 99.448C278.01 101.24 276.074 102.504 273.546 103.24L281.946 115H279.162ZM267.882 101.848C271.466 101.848 274.202 101.064 276.09 99.496C277.978 97.896 278.922 95.64 278.922 92.728C278.922 89.816 277.978 87.576 276.09 86.008C274.202 84.408 271.466 83.608 267.882 83.608H258.282V101.848H267.882ZM318.365 112.792V115H295.181V81.4H317.645V83.608H297.629V96.856H315.533V99.016H297.629V112.792H318.365Z" fill="#00234D"/>
<rect x="330" y="21" width="4" height="98" fill="#00234D"/>
</svg>
