<svg width="122" height="32" viewBox="0 0 122 32" fill="none" xmlns="http://www.w3.org/2000/svg">
<path d="M15.8819 17.1906C17.4594 17.4865 18.7562 18.2801 19.7722 19.5714C20.7882 20.8627 21.2962 22.3423 21.2962 24.0103C21.2962 25.5168 20.9219 26.8484 20.1732 28.0052C19.4513 29.1351 18.3952 30.0229 17.0049 30.6685C15.6145 31.3142 13.9702 31.637 12.0718 31.637H0V3.47055H11.5505C13.4488 3.47055 15.0798 3.77992 16.4434 4.39867C17.8337 5.01742 18.8765 5.87828 19.5716 6.98127C20.2935 8.08425 20.6545 9.3352 20.6545 10.7341C20.6545 12.3751 20.2133 13.7471 19.331 14.8501C18.4754 15.9531 17.3257 16.7333 15.8819 17.1906ZM5.61481 15.0922H10.7484C12.0852 15.0922 13.1146 14.7963 13.8365 14.2045C14.5584 13.5857 14.9194 12.7114 14.9194 11.5815C14.9194 10.4516 14.5584 9.57732 13.8365 8.95857C13.1146 8.33982 12.0852 8.03045 10.7484 8.03045H5.61481V15.0922ZM11.2697 27.0368C12.6333 27.0368 13.6895 26.7139 14.4381 26.0683C15.2135 25.4226 15.6012 24.508 15.6012 23.3243C15.6012 22.1137 15.2001 21.1721 14.398 20.4996C13.5959 19.8001 12.513 19.4504 11.1494 19.4504H5.61481V27.0368H11.2697Z" fill="#00234D"/>
<path d="M28.6186 6.61809C27.6294 6.61809 26.8005 6.30872 26.1321 5.68997C25.4904 5.04432 25.1695 4.25071 25.1695 3.30914C25.1695 2.36756 25.4904 1.5874 26.1321 0.968657C26.8005 0.323008 27.6294 0.000183105 28.6186 0.000183105C29.6079 0.000183105 30.4234 0.323008 31.0651 0.968657C31.7335 1.5874 32.0677 2.36756 32.0677 3.30914C32.0677 4.25071 31.7335 5.04432 31.0651 5.68997C30.4234 6.30872 29.6079 6.61809 28.6186 6.61809ZM31.3859 9.28139V31.637H25.7711V9.28139H31.3859Z" fill="#00234D"/>
<path d="M45.4358 32.0002C43.6177 32.0002 41.9867 31.6774 40.5429 31.0317C39.0991 30.3592 37.9494 29.4579 37.0938 28.3281C36.2649 27.1982 35.8104 25.9472 35.7302 24.5752H41.3851C41.4921 25.4361 41.9065 26.149 42.6284 26.7139C43.377 27.2789 44.2995 27.5613 45.3957 27.5613C46.4652 27.5613 47.294 27.3461 47.8823 26.9157C48.4972 26.4853 48.8047 25.9338 48.8047 25.2612C48.8047 24.5349 48.4304 23.9968 47.6817 23.6471C46.9598 23.2705 45.7968 22.8669 44.1925 22.4365C42.5348 22.033 41.1712 21.616 40.1017 21.1856C39.059 20.7551 38.1499 20.096 37.3745 19.2083C36.6259 18.3205 36.2516 17.1233 36.2516 15.6168C36.2516 14.3793 36.5992 13.2494 37.2943 12.2272C38.0162 11.2049 39.0322 10.3978 40.3424 9.80598C41.6792 9.21414 43.2434 8.91822 45.0348 8.91822C47.6817 8.91822 49.794 9.59077 51.3715 10.9359C52.949 12.2541 53.8179 14.0431 53.9783 16.3028H48.6042C48.524 15.4151 48.1496 14.7156 47.4812 14.2045C46.8395 13.6664 45.9706 13.3974 44.8743 13.3974C43.8583 13.3974 43.0696 13.5857 42.5081 13.9624C41.9733 14.339 41.706 14.8636 41.706 15.5361C41.706 16.2894 42.0803 16.8678 42.8289 17.2713C43.5776 17.6479 44.7406 18.038 46.3181 18.4415C47.9224 18.8451 49.2459 19.2621 50.2886 19.6925C51.3314 20.1229 52.2271 20.7955 52.9757 21.7101C53.7511 22.5979 54.1521 23.7816 54.1789 25.2612C54.1789 26.5525 53.8179 27.7093 53.096 28.7316C52.4009 29.7539 51.3848 30.5609 50.048 31.1528C48.7379 31.7177 47.2005 32.0002 45.4358 32.0002Z" fill="#00234D"/>
<path d="M79.7632 9.28139V31.637H74.1083V28.8123C73.3864 29.7808 72.4373 30.5475 71.2608 31.1124C70.1111 31.6505 68.8545 31.9195 67.4909 31.9195C65.753 31.9195 64.2156 31.5563 62.8787 30.8299C61.5418 30.0767 60.4857 28.9872 59.7103 27.5613C58.9617 26.1086 58.5874 24.3869 58.5874 22.3961V9.28139H64.2022V21.5891C64.2022 23.3646 64.6434 24.7366 65.5257 25.7051C66.408 26.6467 67.6112 27.1175 69.1352 27.1175C70.686 27.1175 71.9025 26.6467 72.7848 25.7051C73.6672 24.7366 74.1083 23.3646 74.1083 21.5891V9.28139H79.7632Z" fill="#00234D"/>
<path d="M112.896 8.95857C115.623 8.95857 117.816 9.80598 119.473 11.5008C121.158 13.1687 122 15.5092 122 18.5223V31.637H116.385V19.289C116.385 17.5403 115.944 16.2087 115.062 15.294C114.179 14.3524 112.976 13.8816 111.452 13.8816C109.928 13.8816 108.712 14.3524 107.803 15.294C106.92 16.2087 106.479 17.5403 106.479 19.289V31.637H100.864V19.289C100.864 17.5403 100.423 16.2087 99.5407 15.294C98.6584 14.3524 97.4552 13.8816 95.9312 13.8816C94.3805 13.8816 93.1505 14.3524 92.2415 15.294C91.3592 16.2087 90.918 17.5403 90.918 19.289V31.637H85.3032V9.28139H90.918V11.9851C91.6399 11.0435 92.5623 10.3037 93.6853 9.76563C94.835 9.22759 96.0916 8.95857 97.4552 8.95857C99.1932 8.95857 100.744 9.3352 102.108 10.0885C103.471 10.8148 104.527 11.864 105.276 13.236C105.998 11.9447 107.041 10.909 108.404 10.1288C109.794 9.34865 111.292 8.95857 112.896 8.95857Z" fill="#00234D"/>
</svg>
