<svg width="428" height="60" viewBox="0 0 428 60" fill="none" xmlns="http://www.w3.org/2000/svg">
<rect x="249" y="60" width="4" height="178" transform="rotate(-90 249 60)" fill="#00234D"/>
<path d="M49.2992 21.2109V16.875C49.2992 14.5129 48.3609 12.2476 46.6906 10.5773C45.0204 8.90708 42.7551 7.96875 40.393 7.96875H17.893C15.5309 7.96875 13.2656 8.90708 11.5953 10.5773C9.92507 12.2476 8.98673 14.5129 8.98673 16.875V21.2109C6.90207 21.5525 5.00668 22.6239 3.63903 24.2339C2.27138 25.8439 1.52051 27.8875 1.52051 30C1.52051 32.1125 2.27138 34.1561 3.63903 35.7661C5.00668 37.3761 6.90207 38.4475 8.98673 38.7891V46.875C8.98673 47.7452 9.33243 48.5798 9.94779 49.1952C10.5631 49.8105 11.3977 50.1562 12.268 50.1562H46.018C46.8882 50.1562 47.7228 49.8105 48.3382 49.1952C48.9535 48.5798 49.2992 47.7452 49.2992 46.875V38.7891C51.3839 38.4475 53.2793 37.3761 54.6469 35.7661C56.0146 34.1561 56.7655 32.1125 56.7655 30C56.7655 27.8875 56.0146 25.8439 54.6469 24.2339C53.2793 22.6239 51.3839 21.5525 49.2992 21.2109V21.2109ZM17.893 10.7812H40.393C42.0072 10.7874 43.5536 11.4314 44.6951 12.5729C45.8366 13.7144 46.4806 15.2607 46.4867 16.875V21.2109C44.3979 21.5497 42.4973 22.6193 41.1237 24.229C39.7501 25.8387 38.9928 27.8839 38.9867 30V30.4688H19.2992V30C19.2932 27.8839 18.5359 25.8387 17.1623 24.229C15.7887 22.6193 13.888 21.5497 11.7992 21.2109V16.875C11.8054 15.2607 12.4494 13.7144 13.5909 12.5729C14.7323 11.4314 16.2787 10.7874 17.893 10.7812V10.7812ZM47.9633 36.0938H47.893C47.52 36.0938 47.1623 36.2419 46.8986 36.5056C46.6349 36.7694 46.4867 37.127 46.4867 37.5V46.875C46.4867 46.9993 46.4373 47.1185 46.3494 47.2065C46.2615 47.2944 46.1423 47.3438 46.018 47.3438H12.268C12.1437 47.3438 12.0244 47.2944 11.9365 47.2065C11.8486 47.1185 11.7992 46.9993 11.7992 46.875V37.5C11.7992 37.127 11.6511 36.7694 11.3874 36.5056C11.1236 36.2419 10.7659 36.0938 10.393 36.0938H10.3227C9.12053 36.0799 7.94935 35.7107 6.95654 35.0328C5.96372 34.3548 5.19362 33.3983 4.74316 32.2837C4.2927 31.169 4.18201 29.9461 4.42502 28.7687C4.66803 27.5913 5.25388 26.512 6.10884 25.6668C6.9638 24.8216 8.04966 24.2482 9.22977 24.0187C10.4099 23.7892 11.6315 23.9139 12.7409 24.3771C13.8503 24.8404 14.7979 25.6214 15.4644 26.6219C16.131 27.6224 16.4867 28.7978 16.4867 30V39.375C16.4867 39.748 16.6349 40.1056 16.8986 40.3694C17.1623 40.6331 17.52 40.7812 17.893 40.7812C18.2659 40.7812 18.6236 40.6331 18.8873 40.3694C19.1511 40.1056 19.2992 39.748 19.2992 39.375V33.2812H38.9867V39.375C38.9867 39.748 39.1349 40.1056 39.3986 40.3694C39.6623 40.6331 40.02 40.7812 40.393 40.7812C40.7659 40.7812 41.1236 40.6331 41.3873 40.3694C41.6511 40.1056 41.7992 39.748 41.7992 39.375V30C41.7993 28.7978 42.155 27.6224 42.8215 26.6219C43.4881 25.6214 44.4357 24.8404 45.5451 24.3771C46.6544 23.9139 47.8761 23.7892 49.0562 24.0187C50.2363 24.2482 51.3222 24.8216 52.1771 25.6668C53.0321 26.512 53.6179 27.5913 53.8609 28.7687C54.1039 29.9461 53.9933 31.169 53.5428 32.2837C53.0923 33.3983 52.3222 34.3548 51.3294 35.0328C50.3366 35.7107 49.1654 36.0799 47.9633 36.0938V36.0938Z" fill="#00234D"/>
<path d="M74.84 17.576V29.288H91.688V33.416H74.84V47H70.04V13.4H93.752V17.576H74.84ZM119.229 47.384C114.749 47.384 111.261 46.104 108.765 43.544C106.269 40.984 105.021 37.304 105.021 32.504V13.4H109.821V32.312C109.821 39.512 112.973 43.112 119.277 43.112C122.349 43.112 124.701 42.232 126.333 40.472C127.965 38.68 128.781 35.96 128.781 32.312V13.4H133.437V32.504C133.437 37.336 132.189 41.032 129.693 43.592C127.197 46.12 123.709 47.384 119.229 47.384ZM170.541 47L163.293 36.68C162.397 36.744 161.693 36.776 161.181 36.776H152.877V47H148.077V13.4H161.181C165.533 13.4 168.957 14.44 171.453 16.52C173.949 18.6 175.197 21.464 175.197 25.112C175.197 27.704 174.557 29.912 173.278 31.736C171.998 33.56 170.174 34.888 167.806 35.72L175.774 47H170.541ZM161.037 32.696C164.077 32.696 166.398 32.04 167.998 30.728C169.598 29.416 170.398 27.544 170.398 25.112C170.398 22.68 169.598 20.824 167.998 19.544C166.398 18.232 164.077 17.576 161.037 17.576H152.877V32.696H161.037ZM216.649 13.4V47H212.713L192.553 21.944V47H187.753V13.4H191.689L211.849 38.456V13.4H216.649ZM231.506 13.4H236.306V47H231.506V13.4ZM260.813 47.24C258.349 47.24 255.997 46.824 253.757 45.992C251.549 45.128 249.821 44.024 248.573 42.68L249.677 40.856C250.861 42.104 252.445 43.128 254.429 43.928C256.445 44.696 258.557 45.08 260.765 45.08C263.965 45.08 266.381 44.472 268.013 43.256C269.645 42.04 270.461 40.456 270.461 38.504C270.461 37 270.029 35.8 269.165 34.904C268.301 34.008 267.229 33.32 265.949 32.84C264.669 32.36 262.941 31.864 260.765 31.352C258.301 30.744 256.317 30.152 254.813 29.576C253.341 29 252.077 28.12 251.021 26.936C249.997 25.72 249.485 24.104 249.485 22.088C249.485 20.456 249.917 18.968 250.781 17.624C251.645 16.248 252.957 15.16 254.717 14.36C256.509 13.56 258.733 13.16 261.389 13.16C263.245 13.16 265.069 13.432 266.861 13.976C268.653 14.52 270.205 15.256 271.517 16.184L270.605 18.152C269.261 17.224 267.773 16.52 266.141 16.04C264.541 15.56 262.957 15.32 261.389 15.32C258.285 15.32 255.933 15.944 254.333 17.192C252.733 18.44 251.933 20.056 251.933 22.04C251.933 23.544 252.365 24.744 253.229 25.64C254.093 26.536 255.165 27.224 256.445 27.704C257.725 28.184 259.469 28.696 261.677 29.24C264.141 29.848 266.109 30.44 267.581 31.016C269.053 31.592 270.301 32.472 271.325 33.656C272.381 34.808 272.909 36.376 272.909 38.36C272.909 39.992 272.461 41.48 271.565 42.824C270.701 44.168 269.357 45.24 267.533 46.04C265.709 46.84 263.469 47.24 260.813 47.24ZM291.994 15.608H279.898V13.4H306.538V15.608H294.442V47H291.994V15.608ZM331.196 47.24C327.9 47.24 324.924 46.504 322.268 45.032C319.612 43.528 317.516 41.48 315.98 38.888C314.476 36.296 313.724 33.4 313.724 30.2C313.724 27 314.476 24.104 315.98 21.512C317.516 18.92 319.612 16.888 322.268 15.416C324.924 13.912 327.9 13.16 331.196 13.16C334.492 13.16 337.468 13.896 340.124 15.368C342.78 16.84 344.86 18.872 346.364 21.464C347.9 24.056 348.668 26.968 348.668 30.2C348.668 33.432 347.9 36.344 346.364 38.936C344.86 41.528 342.78 43.56 340.124 45.032C337.468 46.504 334.492 47.24 331.196 47.24ZM331.196 44.984C334.012 44.984 336.556 44.344 338.828 43.064C341.1 41.784 342.892 40.024 344.204 37.784C345.516 35.512 346.172 32.984 346.172 30.2C346.172 27.416 345.516 24.904 344.204 22.664C342.892 20.392 341.1 18.616 338.828 17.336C336.556 16.056 334.012 15.416 331.196 15.416C328.38 15.416 325.82 16.056 323.516 17.336C321.244 18.616 319.452 20.392 318.14 22.664C316.828 24.904 316.172 27.416 316.172 30.2C316.172 32.984 316.828 35.512 318.14 37.784C319.452 40.024 321.244 41.784 323.516 43.064C325.82 44.344 328.38 44.984 331.196 44.984ZM385.287 47L377.271 35.768C376.087 35.928 374.999 36.008 374.007 36.008H364.407V47H361.959V13.4H374.007C378.231 13.4 381.543 14.408 383.943 16.424C386.343 18.408 387.543 21.176 387.543 24.728C387.543 27.384 386.855 29.624 385.479 31.448C384.135 33.24 382.199 34.504 379.671 35.24L388.071 47H385.287ZM374.007 33.848C377.591 33.848 380.327 33.064 382.215 31.496C384.103 29.896 385.047 27.64 385.047 24.728C385.047 21.816 384.103 19.576 382.215 18.008C380.327 16.408 377.591 15.608 374.007 15.608H364.407V33.848H374.007ZM424.49 44.792V47H401.306V13.4H423.77V15.608H403.754V28.856H421.658V31.016H403.754V44.792H424.49Z" fill="#00234D"/>
</svg>
