<svg width="122" height="32" viewBox="0 0 122 32" fill="none" xmlns="http://www.w3.org/2000/svg">
<path d="M15.8819 17.1904C17.4594 17.4863 18.7562 18.28 19.7722 19.5712C20.7882 20.8625 21.2962 22.3422 21.2962 24.0101C21.2962 25.5166 20.9219 26.8483 20.1732 28.005C19.4513 29.1349 18.3952 30.0227 17.0049 30.6683C15.6145 31.314 13.9702 31.6368 12.0718 31.6368H0V3.47037H11.5505C13.4488 3.47037 15.0798 3.77974 16.4434 4.39849C17.8337 5.01724 18.8765 5.8781 19.5716 6.98109C20.2935 8.08407 20.6545 9.33501 20.6545 10.7339C20.6545 12.3749 20.2133 13.747 19.331 14.8499C18.4754 15.9529 17.3257 16.7331 15.8819 17.1904ZM5.61481 15.0921H10.7484C12.0852 15.0921 13.1146 14.7961 13.8365 14.2043C14.5584 13.5855 14.9194 12.7112 14.9194 11.5813C14.9194 10.4515 14.5584 9.57713 13.8365 8.95839C13.1146 8.33964 12.0852 8.03026 10.7484 8.03026H5.61481V15.0921ZM11.2697 27.0366C12.6333 27.0366 13.6895 26.7137 14.4381 26.0681C15.2135 25.4224 15.6012 24.5078 15.6012 23.3241C15.6012 22.1135 15.2001 21.1719 14.398 20.4994C13.5959 19.7999 12.513 19.4502 11.1494 19.4502H5.61481V27.0366H11.2697Z" fill="#00234D"/>
<path d="M28.6186 6.61791C27.6294 6.61791 26.8005 6.30853 26.1321 5.68979C25.4904 5.04414 25.1695 4.25052 25.1695 3.30895C25.1695 2.36738 25.4904 1.58722 26.1321 0.968474C26.8005 0.322825 27.6294 0 28.6186 0C29.6079 0 30.4234 0.322825 31.0651 0.968474C31.7335 1.58722 32.0677 2.36738 32.0677 3.30895C32.0677 4.25052 31.7335 5.04414 31.0651 5.68979C30.4234 6.30853 29.6079 6.61791 28.6186 6.61791ZM31.3859 9.28121V31.6368H25.7711V9.28121H31.3859Z" fill="#00234D"/>
<path d="M45.4358 32C43.6177 32 41.9867 31.6772 40.5429 31.0315C39.0991 30.359 37.9494 29.4578 37.0938 28.3279C36.2649 27.198 35.8104 25.947 35.7302 24.575H41.3851C41.4921 25.4359 41.9065 26.1488 42.6284 26.7137C43.377 27.2787 44.2995 27.5612 45.3957 27.5612C46.4652 27.5612 47.294 27.3459 47.8823 26.9155C48.4972 26.4851 48.8047 25.9336 48.8047 25.261C48.8047 24.5347 48.4304 23.9966 47.6817 23.6469C46.9598 23.2703 45.7968 22.8668 44.1925 22.4363C42.5348 22.0328 41.1712 21.6158 40.1017 21.1854C39.059 20.7549 38.1499 20.0958 37.3745 19.2081C36.6259 18.3203 36.2516 17.1232 36.2516 15.6166C36.2516 14.3792 36.5992 13.2493 37.2943 12.227C38.0162 11.2047 39.0322 10.3976 40.3424 9.8058C41.6792 9.21396 43.2434 8.91803 45.0348 8.91803C47.6817 8.91803 49.794 9.59058 51.3715 10.9357C52.949 12.2539 53.8179 14.0429 53.9783 16.3026H48.6042C48.524 15.4149 48.1496 14.7154 47.4812 14.2043C46.8395 13.6662 45.9706 13.3972 44.8743 13.3972C43.8583 13.3972 43.0696 13.5855 42.5081 13.9622C41.9733 14.3388 41.706 14.8634 41.706 15.5359C41.706 16.2892 42.0803 16.8676 42.8289 17.2711C43.5776 17.6478 44.7406 18.0378 46.3181 18.4414C47.9224 18.8449 49.2459 19.2619 50.2886 19.6923C51.3314 20.1227 52.2271 20.7953 52.9757 21.71C53.7511 22.5977 54.1521 23.7814 54.1789 25.261C54.1789 26.5523 53.8179 27.7091 53.096 28.7314C52.4009 29.7537 51.3848 30.5607 50.048 31.1526C48.7379 31.7175 47.2005 32 45.4358 32Z" fill="#00234D"/>
<path d="M79.7632 9.28121V31.6368H74.1083V28.8121C73.3864 29.7806 72.4373 30.5473 71.2608 31.1122C70.1111 31.6503 68.8545 31.9193 67.4909 31.9193C65.753 31.9193 64.2156 31.5561 62.8787 30.8298C61.5418 30.0765 60.4857 28.987 59.7103 27.5612C58.9617 26.1084 58.5874 24.3867 58.5874 22.396V9.28121H64.2022V21.5889C64.2022 23.3644 64.6434 24.7364 65.5257 25.7049C66.408 26.6465 67.6112 27.1173 69.1352 27.1173C70.686 27.1173 71.9025 26.6465 72.7848 25.7049C73.6672 24.7364 74.1083 23.3644 74.1083 21.5889V9.28121H79.7632Z" fill="#00234D"/>
<path d="M112.896 8.95839C115.623 8.95839 117.816 9.8058 119.473 11.5006C121.158 13.1686 122 15.509 122 18.5221V31.6368H116.385V19.2888C116.385 17.5401 115.944 16.2085 115.062 15.2938C114.179 14.3522 112.976 13.8815 111.452 13.8815C109.928 13.8815 108.712 14.3522 107.803 15.2938C106.92 16.2085 106.479 17.5401 106.479 19.2888V31.6368H100.864V19.2888C100.864 17.5401 100.423 16.2085 99.5407 15.2938C98.6584 14.3522 97.4552 13.8815 95.9312 13.8815C94.3805 13.8815 93.1505 14.3522 92.2415 15.2938C91.3592 16.2085 90.918 17.5401 90.918 19.2888V31.6368H85.3032V9.28121H90.918V11.9849C91.6399 11.0433 92.5623 10.3035 93.6853 9.76545C94.835 9.22741 96.0916 8.95839 97.4552 8.95839C99.1932 8.95839 100.744 9.33501 102.108 10.0883C103.471 10.8146 104.527 11.8638 105.276 13.2358C105.998 11.9445 107.041 10.9088 108.404 10.1286C109.794 9.34846 111.292 8.95839 112.896 8.95839Z" fill="#00234D"/>
</svg>
