<svg width="32" height="32" viewBox="0 0 32 32" fill="none" xmlns="http://www.w3.org/2000/svg">
<path d="M9.96429 6.00018C6.12305 6.00018 3 9.10686 3 12.8484C3 14.1539 3.60212 15.2846 4.16071 16.1014C4.71931 16.9181 5.29241 17.4425 5.29241 17.4425L15.3326 27.3439L16 28.0002L16.6674 27.3439L26.7076 17.4425C26.7076 17.4425 29 15.4558 29 12.8484C29 9.10686 25.877 6.00018 22.0357 6.00018C18.8474 6.00018 16.7944 7.88702 16 8.68241C15.2056 7.88702 13.1526 6.00018 9.96429 6.00018ZM9.96429 7.82638C12.7391 7.82638 15.3036 10.4801 15.3036 10.4801L16 11.2505L16.6964 10.4801C16.6964 10.4801 19.2609 7.82638 22.0357 7.82638C24.8613 7.82638 27.1429 10.1056 27.1429 12.8484C27.1429 14.2573 25.4018 16.1584 25.4018 16.1584L16 25.4036L6.59821 16.1584C6.59821 16.1584 6.14844 15.734 5.69866 15.0741C5.24888 14.4143 4.85714 13.5547 4.85714 12.8484C4.85714 10.1056 7.13867 7.82638 9.96429 7.82638Z" fill="#00234D"/>
</svg>
