<svg width="32" height="32" viewBox="0 0 32 32" fill="none" xmlns="http://www.w3.org/2000/svg">
<path d="M13 3.00018C18.5117 3.00018 23 7.48846 23 13.0002C23 15.3947 22.1602 17.59 20.75 19.3127L28.7188 27.2814L27.2812 28.7189L19.3125 20.7502C17.5898 22.1603 15.3945 23.0002 13 23.0002C7.48828 23.0002 3 18.5119 3 13.0002C3 7.48846 7.48828 3.00018 13 3.00018ZM13 5.00018C8.57031 5.00018 5 8.5705 5 13.0002C5 17.4299 8.57031 21.0002 13 21.0002C17.4297 21.0002 21 17.4299 21 13.0002C21 8.5705 17.4297 5.00018 13 5.00018Z" fill="#00234D"/>
</svg>
