<svg width="32" height="32" viewBox="0 0 32 32" fill="none" xmlns="http://www.w3.org/2000/svg">
<path d="M16 3.00018C13.2539 3.00018 11 5.25409 11 8.00018V9.00018H6.0625L6 9.93768L5 27.9377L4.9375 29.0002H27.0625L27 27.9377L26 9.93768L25.9375 9.00018H21V8.00018C21 5.25409 18.7461 3.00018 16 3.00018ZM16 5.00018C17.6562 5.00018 19 6.34393 19 8.00018V9.00018H13V8.00018C13 6.34393 14.3438 5.00018 16 5.00018ZM7.9375 11.0002H11V14.0002H13V11.0002H19V14.0002H21V11.0002H24.0625L24.9375 27.0002H7.0625L7.9375 11.0002Z" fill="#00234D"/>
</svg>
