<svg width="16" height="17" viewBox="0 0 16 17" fill="none" xmlns="http://www.w3.org/2000/svg">
<path d="M8 3C6.07227 3 4.5 4.57227 4.5 6.5C4.5 7.70508 5.11523 8.77539 6.04688 9.40625C4.26367 10.1719 3 11.9414 3 14H4C4 11.7852 5.78516 10 8 10C10.2148 10 12 11.7852 12 14H13C13 11.9414 11.7363 10.1719 9.95312 9.40625C10.8848 8.77539 11.5 7.70508 11.5 6.5C11.5 4.57227 9.92773 3 8 3ZM8 4C9.38672 4 10.5 5.11328 10.5 6.5C10.5 7.88672 9.38672 9 8 9C6.61328 9 5.5 7.88672 5.5 6.5C5.5 5.11328 6.61328 4 8 4Z" fill="#00234D"/>
</svg>
