<svg width="41" height="30" viewBox="0 0 41 30" fill="none" xmlns="http://www.w3.org/2000/svg">
<path fill-rule="evenodd" clip-rule="evenodd" d="M2.41271 2.3125C2.07972 2.3125 1.80978 2.58299 1.80978 2.91667V27.0833C1.80978 27.417 2.07972 27.6875 2.41271 27.6875H38.5883C38.9213 27.6875 39.1912 27.417 39.1912 27.0833V2.91667C39.1912 2.58299 38.9213 2.3125 38.5883 2.3125H2.41271ZM0.00100241 2.91667C0.00100241 1.58198 1.08076 0.5 2.41271 0.5H38.5883C39.9202 0.5 41 1.58198 41 2.91667V27.0833C41 28.418 39.9202 29.5 38.5883 29.5H2.41271C1.08076 29.5 0.00100241 28.418 0.00100241 27.0833V2.91667Z" fill="#00234D"/>
<path fill-rule="evenodd" clip-rule="evenodd" d="M27.1317 22.5521C27.1317 22.0516 27.5366 21.6458 28.0361 21.6458H34.0653C34.5648 21.6458 34.9697 22.0516 34.9697 22.5521C34.9697 23.0526 34.5648 23.4583 34.0653 23.4583H28.0361C27.5366 23.4583 27.1317 23.0526 27.1317 22.5521Z" fill="#00234D"/>
<path fill-rule="evenodd" clip-rule="evenodd" d="M18.0878 22.5521C18.0878 22.0516 18.4927 21.6458 18.9922 21.6458H22.0068C22.5063 21.6458 22.9112 22.0516 22.9112 22.5521C22.9112 23.0526 22.5063 23.4583 22.0068 23.4583H18.9922C18.4927 23.4583 18.0878 23.0526 18.0878 22.5521Z" fill="#00234D"/>
<path fill-rule="evenodd" clip-rule="evenodd" d="M0 9.12052C0 8.62001 0.404909 8.21427 0.90439 8.21427H40.0946C40.5941 8.21427 40.999 8.62001 40.999 9.12052C40.999 9.62103 40.5941 10.0268 40.0946 10.0268H0.90439C0.404909 10.0268 0 9.62103 0 9.12052Z" fill="#00234D"/>
</svg>
