<svg width="35" height="30" viewBox="0 0 35 30" fill="none" xmlns="http://www.w3.org/2000/svg">
<path d="M30.7414 9.83477C29.8845 6.99129 28.1337 4.49927 25.7483 2.72788C23.363 0.956487 20.4701 -4.09466e-05 17.4981 1.31467e-09C14.5261 4.09492e-05 11.6332 0.956649 9.24793 2.72811C6.86265 4.49956 5.11189 6.99163 4.25502 9.83513C3.09791 9.87739 2.0037 10.372 1.208 11.2125C0.412311 12.053 -0.0212094 13.1721 0.000798793 14.3289C0.022807 15.4856 0.498583 16.5875 1.32567 17.3971C2.15276 18.2068 3.265 18.6595 4.42288 18.6578C4.45955 18.6578 4.4939 18.6495 4.53042 18.6486C5.3295 20.7936 6.64996 22.7062 8.37289 24.2144C10.0958 25.7226 12.1671 26.7789 14.4002 27.2882C14.5006 28.0431 14.8736 28.7354 15.449 29.2348C16.0244 29.7342 16.7627 30.0063 17.5248 29.9999C18.2869 29.9935 19.0205 29.709 19.5874 29.2C20.1544 28.691 20.5156 27.9926 20.6033 27.2361C20.6909 26.4796 20.4989 25.7171 20.0633 25.0922C19.6277 24.4672 18.9785 24.0229 18.238 23.8427C17.4975 23.6625 16.7166 23.7589 16.0422 24.1138C15.3678 24.4686 14.8464 25.0575 14.5761 25.7695C12.333 25.2211 10.2895 24.0533 8.67911 22.3995C7.06867 20.7457 5.95624 18.6727 5.46889 16.4172C4.98155 14.1617 5.13894 11.8148 5.92308 9.64442C6.70723 7.47407 8.08652 5.56787 9.90337 4.14357C11.7202 2.71928 13.9014 1.83432 16.1977 1.5898C18.4939 1.34528 20.8128 1.75106 22.8892 2.76078C24.9657 3.77049 26.716 5.34344 27.9403 7.29992C29.1646 9.25639 29.8135 11.5175 29.8128 13.825V17.8975C29.8128 18.0992 29.893 18.2925 30.0357 18.4351C30.1784 18.5777 30.3719 18.6578 30.5737 18.6578L30.5754 18.6575L30.5771 18.6578C31.7353 18.6595 32.8478 18.2065 33.675 17.3964C34.5021 16.5864 34.9777 15.4841 34.9992 14.327C35.0208 13.1699 34.5866 12.0507 33.7902 11.2105C32.9938 10.3702 31.8989 9.87616 30.7414 9.83477ZM17.4985 25.2746C17.8182 25.2746 18.1308 25.3694 18.3966 25.5469C18.6624 25.7244 18.8696 25.9767 18.9919 26.2718C19.1142 26.567 19.1462 26.8918 19.0838 27.2051C19.0214 27.5184 18.8675 27.8062 18.6414 28.0321C18.4153 28.258 18.1273 28.4118 17.8137 28.4742C17.5001 28.5365 17.1751 28.5045 16.8797 28.3823C16.5843 28.2601 16.3319 28.0531 16.1542 27.7875C15.9765 27.5219 15.8817 27.2096 15.8816 26.8901C15.8821 26.4618 16.0525 26.0511 16.3557 25.7482C16.6588 25.4453 17.0698 25.275 17.4985 25.2746ZM1.52154 14.2382C1.52275 13.5625 1.76005 12.9084 2.19245 12.3889C2.62486 11.8694 3.22523 11.517 3.88993 11.3926C3.53531 13.2858 3.59505 15.2332 4.06505 17.1011C3.36481 17.0154 2.71996 16.6773 2.25162 16.1502C1.78328 15.623 1.52366 14.9431 1.52154 14.2382ZM31.3345 17.0244V13.825C31.3306 13.0089 31.2543 12.1948 31.1065 11.3922C31.7525 11.51 32.339 11.844 32.7697 12.3393C33.2004 12.8346 33.4495 13.4616 33.476 14.1171C33.5026 14.7727 33.3049 15.4177 32.9157 15.9461C32.5265 16.4745 31.9688 16.8548 31.3345 17.0244Z" fill="#00234D"/>
<path d="M17.4978 6.10742C15.8884 6.10737 14.315 6.58421 12.9768 7.47762C11.6386 8.37104 10.5955 9.64091 9.97955 11.1267C9.36359 12.6124 9.20238 14.2473 9.51633 15.8246C9.83027 17.4019 10.6053 18.8507 11.7433 19.9879C12.8813 21.1251 14.3313 21.8995 15.9098 22.2133C17.4883 22.5271 19.1245 22.3661 20.6115 21.7508C22.0985 21.1354 23.3694 20.0932 24.2636 18.7561C25.1578 17.419 25.6351 15.8469 25.6352 14.2388C25.6327 12.083 24.7746 10.0163 23.2491 8.49198C21.7236 6.96762 19.6553 6.11006 17.4978 6.10742ZM17.4978 20.8491C16.1893 20.8491 14.9102 20.4614 13.8222 19.7351C12.7342 19.0087 11.8862 17.9763 11.3854 16.7684C10.8847 15.5604 10.7536 14.2313 11.0089 12.9489C11.2641 11.6666 11.8942 10.4887 12.8195 9.56415C13.7448 8.63963 14.9236 8.01003 16.207 7.75497C17.4903 7.49991 18.8206 7.63084 20.0295 8.13121C21.2384 8.63157 22.2716 9.4789 22.9986 10.566C23.7255 11.6532 24.1135 12.9313 24.1134 14.2388C24.1114 15.9913 23.4138 17.6715 22.1736 18.9107C20.9333 20.15 19.2518 20.8471 17.4978 20.8491Z" fill="#00234D"/>
<path d="M17.4997 9.81796C17.2979 9.81801 17.1044 9.89813 16.9618 10.0407C16.8191 10.1833 16.7389 10.3766 16.7388 10.5782V13.4778H13.3287C13.127 13.4778 12.9334 13.5579 12.7907 13.7004C12.648 13.843 12.5679 14.0364 12.5679 14.238C12.5679 14.4397 12.648 14.633 12.7907 14.7756C12.9334 14.9182 13.127 14.9983 13.3287 14.9983H17.4997C17.7015 14.9982 17.895 14.9181 18.0377 14.7756C18.1804 14.633 18.2605 14.4396 18.2606 14.238V10.5782C18.2605 10.3766 18.1804 10.1833 18.0377 10.0407C17.895 9.89813 17.7015 9.81801 17.4997 9.81796Z" fill="#00234D"/>
</svg>
