<svg width="47" height="30" viewBox="0 0 47 30" fill="none" xmlns="http://www.w3.org/2000/svg">
<path fill-rule="evenodd" clip-rule="evenodd" d="M3.49814 26.6667H3.35714C1.504 26.6667 0 25.1733 0 23.3333V3.33333C0 1.49333 1.504 0 3.35714 0H32.4524C34.3055 0 35.8095 1.49333 35.8095 3.33333V6.66667H41.4048C42.8886 6.66667 44.312 7.25111 45.3617 8.29333C46.4114 9.33556 47 10.7489 47 12.2222V23.3333C47 25.1733 45.496 26.6667 43.6429 26.6667H40.2857C40.2387 26.6667 40.1917 26.6644 40.147 26.6578C39.6523 28.5778 37.8977 30 35.8095 30C33.7259 30 31.9712 28.5822 31.4743 26.6667H12.1685C11.6717 28.5822 9.917 30 7.83333 30C5.74967 30 3.995 28.5822 3.49814 26.6667ZM7.83333 23.3333C9.06876 23.3333 10.0714 24.3289 10.0714 25.5556C10.0714 26.7822 9.06876 27.7778 7.83333 27.7778C6.5979 27.7778 5.59524 26.7822 5.59524 25.5556C5.59524 24.3289 6.5979 23.3333 7.83333 23.3333ZM35.8095 23.3333C37.045 23.3333 38.0476 24.3289 38.0476 25.5556C38.0476 26.7822 37.045 27.7778 35.8095 27.7778C34.5741 27.7778 33.5714 26.7822 33.5714 25.5556C33.5714 24.3289 34.5741 23.3333 35.8095 23.3333ZM35.8095 8.88889V21.1111C35.9863 21.1111 36.1631 21.1222 36.3377 21.1422C36.6376 21.1778 36.933 21.2422 37.2195 21.3356C37.6985 21.4933 38.1506 21.7356 38.5512 22.0422C38.9943 22.3844 39.3703 22.8089 39.659 23.2867C39.8739 23.6467 40.0395 24.0378 40.1447 24.4444L40.147 24.4533C40.1917 24.4467 40.2387 24.4444 40.2857 24.4444H43.6429C44.2606 24.4444 44.7619 23.9467 44.7619 23.3333V20H43.6429C43.0251 20 42.5238 19.5022 42.5238 18.8889C42.5238 18.2756 43.0251 17.7778 43.6429 17.7778H44.7619V15.5556H41.4048C40.7871 15.5556 40.2857 15.0578 40.2857 14.4444C40.2857 13.8311 40.7871 13.3333 41.4048 13.3333H44.7619V12.2222C44.7619 11.3378 44.4083 10.4911 43.7794 9.86444C43.1482 9.24 42.2955 8.88889 41.4048 8.88889H35.8095ZM33.5714 21.7067V3.33333C33.5714 2.72 33.0701 2.22222 32.4524 2.22222H3.35714C2.73943 2.22222 2.2381 2.72 2.2381 3.33333V23.3333C2.2381 23.9467 2.73943 24.4444 3.35714 24.4444H3.49814C3.995 22.5289 5.74967 21.1111 7.83333 21.1111C9.917 21.1111 11.6717 22.5289 12.1685 24.4444H31.4743C31.7765 23.2778 32.5464 22.2956 33.5714 21.7067Z" fill="#00234D"/>
</svg>
