<svg width="32" height="32" viewBox="0 0 32 32" fill="none" xmlns="http://www.w3.org/2000/svg">
<path d="M9.96429 6C6.12305 6 3 9.10668 3 12.8482C3 14.1537 3.60212 15.2844 4.16071 16.1012C4.71931 16.918 5.29241 17.4423 5.29241 17.4423L15.3326 27.3437L16 28L16.6674 27.3437L26.7076 17.4423C26.7076 17.4423 29 15.4556 29 12.8482C29 9.10668 25.877 6 22.0357 6C18.8474 6 16.7944 7.88684 16 8.68223C15.2056 7.88684 13.1526 6 9.96429 6ZM9.96429 7.8262C12.7391 7.8262 15.3036 10.4799 15.3036 10.4799L16 11.2503L16.6964 10.4799C16.6964 10.4799 19.2609 7.8262 22.0357 7.8262C24.8613 7.8262 27.1429 10.1054 27.1429 12.8482C27.1429 14.2571 25.4018 16.1582 25.4018 16.1582L16 25.4034L6.59821 16.1582C6.59821 16.1582 6.14844 15.7338 5.69866 15.0739C5.24888 14.4141 4.85714 13.5545 4.85714 12.8482C4.85714 10.1054 7.13867 7.8262 9.96429 7.8262Z" fill="#00234D"/>
</svg>
